# xmcd CD database file
#
# Track frame offsets:
#	150
#	17305
#	28621
#	43450
#	58046
#	69608
#	78459
#	94283
#	106593
#	118450
#	130217
#	145772
#	160914
#	179958
#	193834
#	205298
#	224225
#	242222
#	254571
#
# Disc length: 3684 seconds
#
# Revision: 0
# Processed by: cddbd v1.5.2PL0 Copyright (c) Steve Scherf et al.
# Submitted via: CDex 1.70beta2
#
DISCID=2f0e6213
DTITLE=Robinson, James H. (03) - Cdn.-Ottawa, On - Cty - The Songes We Sing
DYEAR=2003
DGENRE=Country
TTITLE0=The Songs We Sing
TTITLE1=Alberta Highway
TTITLE2=Believing
TTITLE3=I Guess That's Only Natural
TTITLE4=One Time Flyer
TTITLE5=I'd Like To Sing
TTITLE6=Hell On the Road
TTITLE7=Dance With Me ( Mary Joe Roy )
TTITLE8=High Schooll Buddies
TTITLE9=Lady In Red
TTITLE10=Stay the Night
TTITLE11=Magic Eyes
TTITLE12=Miss You
TTITLE13=Dance of the Lovers
TTITLE14=Seems Like A Cryin' Shame
TTITLE15=Lady Summertime
TTITLE16=Livin' Life Like A Fool
TTITLE17=3/4 Time
TTITLE18=Lines of A Song
EXTD=YEAR: 2003
EXTT0=
EXTT1=
EXTT2=
EXTT3=
EXTT4=
EXTT5=
EXTT6=
EXTT7=
EXTT8=
EXTT9=
EXTT10=
EXTT11=
EXTT12=
EXTT13=
EXTT14=
EXTT15=
EXTT16=
EXTT17=
EXTT18=
PLAYORDER=
